<mxfile host="app.diagrams.net" modified="2022-07-19T10:04:58.660Z" agent="5.0 (Windows NT 10.0; Win64; x64) AppleWebKit/537.36 (KHTML, like Gecko) Chrome/102.0.0.0 Safari/537.36" etag="h1jirU7xM6OmChDooAfC" version="20.0.4" type="github">
  <diagram id="e4eUIGigY2vTglTEDKCt" name="第 1 页">
    <mxGraphModel dx="919" dy="1309" grid="1" gridSize="10" guides="1" tooltips="1" connect="1" arrows="1" fold="1" page="1" pageScale="1" pageWidth="827" pageHeight="1169" math="0" shadow="0">
      <root>
        <mxCell id="0" />
        <mxCell id="1" parent="0" />
        <mxCell id="3eQhAiiFZOsY3aDj4Qa5-39" value="" style="rounded=0;whiteSpace=wrap;html=1;" vertex="1" parent="1">
          <mxGeometry x="20" y="240" width="820" height="1010" as="geometry" />
        </mxCell>
        <mxCell id="3eQhAiiFZOsY3aDj4Qa5-3" value="" style="edgeStyle=orthogonalEdgeStyle;rounded=0;orthogonalLoop=1;jettySize=auto;html=1;" edge="1" parent="1" source="3eQhAiiFZOsY3aDj4Qa5-1" target="3eQhAiiFZOsY3aDj4Qa5-2">
          <mxGeometry relative="1" as="geometry" />
        </mxCell>
        <mxCell id="3eQhAiiFZOsY3aDj4Qa5-1" value="调用上下文的refresh方法" style="rounded=1;whiteSpace=wrap;html=1;fillColor=#ffe6cc;strokeColor=#d79b00;" vertex="1" parent="1">
          <mxGeometry x="110" y="290" width="120" height="60" as="geometry" />
        </mxCell>
        <mxCell id="3eQhAiiFZOsY3aDj4Qa5-5" value="" style="edgeStyle=orthogonalEdgeStyle;rounded=0;orthogonalLoop=1;jettySize=auto;html=1;" edge="1" parent="1" source="3eQhAiiFZOsY3aDj4Qa5-2" target="3eQhAiiFZOsY3aDj4Qa5-4">
          <mxGeometry relative="1" as="geometry" />
        </mxCell>
        <mxCell id="3eQhAiiFZOsY3aDj4Qa5-2" value="根据配置的ComponentScan扫描注解" style="whiteSpace=wrap;html=1;fillColor=#ffe6cc;strokeColor=#d79b00;rounded=1;" vertex="1" parent="1">
          <mxGeometry x="310" y="290" width="120" height="60" as="geometry" />
        </mxCell>
        <mxCell id="3eQhAiiFZOsY3aDj4Qa5-7" value="" style="edgeStyle=orthogonalEdgeStyle;rounded=0;orthogonalLoop=1;jettySize=auto;html=1;" edge="1" parent="1" source="3eQhAiiFZOsY3aDj4Qa5-4" target="3eQhAiiFZOsY3aDj4Qa5-6">
          <mxGeometry relative="1" as="geometry" />
        </mxCell>
        <mxCell id="3eQhAiiFZOsY3aDj4Qa5-4" value="预先调用getBean创建BeanFactoryPostProcessor" style="whiteSpace=wrap;html=1;fillColor=#ffe6cc;strokeColor=#d79b00;rounded=1;" vertex="1" parent="1">
          <mxGeometry x="552.5" y="290" width="150" height="60" as="geometry" />
        </mxCell>
        <mxCell id="3eQhAiiFZOsY3aDj4Qa5-9" value="" style="edgeStyle=orthogonalEdgeStyle;rounded=0;orthogonalLoop=1;jettySize=auto;html=1;" edge="1" parent="1" source="3eQhAiiFZOsY3aDj4Qa5-6" target="3eQhAiiFZOsY3aDj4Qa5-8">
          <mxGeometry relative="1" as="geometry" />
        </mxCell>
        <mxCell id="3eQhAiiFZOsY3aDj4Qa5-6" value="调用BeanFactoryPostProcessor，可以对BeanDefinition进行操作" style="whiteSpace=wrap;html=1;fillColor=#ffe6cc;strokeColor=#d79b00;rounded=1;" vertex="1" parent="1">
          <mxGeometry x="550" y="420" width="155" height="70" as="geometry" />
        </mxCell>
        <mxCell id="3eQhAiiFZOsY3aDj4Qa5-11" value="" style="edgeStyle=orthogonalEdgeStyle;rounded=0;orthogonalLoop=1;jettySize=auto;html=1;" edge="1" parent="1" source="3eQhAiiFZOsY3aDj4Qa5-8" target="3eQhAiiFZOsY3aDj4Qa5-10">
          <mxGeometry relative="1" as="geometry" />
        </mxCell>
        <mxCell id="3eQhAiiFZOsY3aDj4Qa5-8" value="调用&lt;br/&gt;registerBeanPostProcessors&lt;br&gt;注册我们的后置处理器" style="whiteSpace=wrap;html=1;fillColor=#ffe6cc;strokeColor=#d79b00;rounded=1;" vertex="1" parent="1">
          <mxGeometry x="550" y="530" width="155" height="75" as="geometry" />
        </mxCell>
        <mxCell id="3eQhAiiFZOsY3aDj4Qa5-24" style="edgeStyle=orthogonalEdgeStyle;rounded=0;orthogonalLoop=1;jettySize=auto;html=1;exitX=0.5;exitY=1;exitDx=0;exitDy=0;" edge="1" parent="1" source="3eQhAiiFZOsY3aDj4Qa5-10" target="3eQhAiiFZOsY3aDj4Qa5-12">
          <mxGeometry relative="1" as="geometry" />
        </mxCell>
        <mxCell id="3eQhAiiFZOsY3aDj4Qa5-10" value="finishBeanFactoryInitialization开始进行bean的实例化" style="whiteSpace=wrap;html=1;fillColor=#ffe6cc;strokeColor=#d79b00;rounded=1;" vertex="1" parent="1">
          <mxGeometry x="322.5" y="527.25" width="175" height="80.5" as="geometry" />
        </mxCell>
        <mxCell id="3eQhAiiFZOsY3aDj4Qa5-12" value="" style="rounded=1;whiteSpace=wrap;html=1;fillColor=#f5f5f5;fontColor=#333333;strokeColor=#666666;" vertex="1" parent="1">
          <mxGeometry x="50" y="650" width="720" height="410" as="geometry" />
        </mxCell>
        <mxCell id="3eQhAiiFZOsY3aDj4Qa5-15" value="" style="edgeStyle=orthogonalEdgeStyle;rounded=0;orthogonalLoop=1;jettySize=auto;html=1;" edge="1" parent="1" source="3eQhAiiFZOsY3aDj4Qa5-13" target="3eQhAiiFZOsY3aDj4Qa5-14">
          <mxGeometry relative="1" as="geometry" />
        </mxCell>
        <mxCell id="3eQhAiiFZOsY3aDj4Qa5-13" value="getBean" style="rounded=1;whiteSpace=wrap;html=1;fillColor=#ffe6cc;strokeColor=#d79b00;" vertex="1" parent="1">
          <mxGeometry x="90" y="700" width="120" height="60" as="geometry" />
        </mxCell>
        <mxCell id="3eQhAiiFZOsY3aDj4Qa5-17" value="" style="edgeStyle=orthogonalEdgeStyle;rounded=0;orthogonalLoop=1;jettySize=auto;html=1;" edge="1" parent="1" source="3eQhAiiFZOsY3aDj4Qa5-14" target="3eQhAiiFZOsY3aDj4Qa5-16">
          <mxGeometry relative="1" as="geometry" />
        </mxCell>
        <mxCell id="3eQhAiiFZOsY3aDj4Qa5-14" value="doGetBean" style="whiteSpace=wrap;html=1;rounded=1;fillColor=#ffe6cc;strokeColor=#d79b00;" vertex="1" parent="1">
          <mxGeometry x="260" y="700" width="120" height="60" as="geometry" />
        </mxCell>
        <mxCell id="3eQhAiiFZOsY3aDj4Qa5-19" value="" style="edgeStyle=orthogonalEdgeStyle;rounded=0;orthogonalLoop=1;jettySize=auto;html=1;" edge="1" parent="1" source="3eQhAiiFZOsY3aDj4Qa5-16" target="3eQhAiiFZOsY3aDj4Qa5-18">
          <mxGeometry relative="1" as="geometry" />
        </mxCell>
        <mxCell id="3eQhAiiFZOsY3aDj4Qa5-31" style="edgeStyle=orthogonalEdgeStyle;rounded=0;orthogonalLoop=1;jettySize=auto;html=1;exitX=0.5;exitY=1;exitDx=0;exitDy=0;entryX=0.75;entryY=0;entryDx=0;entryDy=0;strokeWidth=3;fillColor=#dae8fc;strokeColor=#6c8ebf;" edge="1" parent="1" source="3eQhAiiFZOsY3aDj4Qa5-16" target="3eQhAiiFZOsY3aDj4Qa5-30">
          <mxGeometry relative="1" as="geometry">
            <Array as="points">
              <mxPoint x="504" y="1000" />
              <mxPoint x="593" y="1000" />
            </Array>
          </mxGeometry>
        </mxCell>
        <mxCell id="3eQhAiiFZOsY3aDj4Qa5-16" value="getSingleton" style="whiteSpace=wrap;html=1;rounded=1;fillColor=#dae8fc;strokeColor=#6c8ebf;" vertex="1" parent="1">
          <mxGeometry x="444" y="700" width="120" height="60" as="geometry" />
        </mxCell>
        <mxCell id="3eQhAiiFZOsY3aDj4Qa5-21" value="" style="edgeStyle=orthogonalEdgeStyle;rounded=0;orthogonalLoop=1;jettySize=auto;html=1;" edge="1" parent="1" source="3eQhAiiFZOsY3aDj4Qa5-18" target="3eQhAiiFZOsY3aDj4Qa5-20">
          <mxGeometry relative="1" as="geometry" />
        </mxCell>
        <mxCell id="3eQhAiiFZOsY3aDj4Qa5-18" value="是否获取到了" style="rhombus;whiteSpace=wrap;html=1;rounded=1;fillColor=#ffe6cc;strokeColor=#d79b00;" vertex="1" parent="1">
          <mxGeometry x="630" y="690" width="80" height="80" as="geometry" />
        </mxCell>
        <mxCell id="3eQhAiiFZOsY3aDj4Qa5-23" value="" style="edgeStyle=orthogonalEdgeStyle;rounded=0;orthogonalLoop=1;jettySize=auto;html=1;" edge="1" parent="1" source="3eQhAiiFZOsY3aDj4Qa5-20" target="3eQhAiiFZOsY3aDj4Qa5-22">
          <mxGeometry relative="1" as="geometry" />
        </mxCell>
        <mxCell id="3eQhAiiFZOsY3aDj4Qa5-20" value="调用CreateBean创建bean" style="whiteSpace=wrap;html=1;rounded=1;fillColor=#ffe6cc;strokeColor=#d79b00;" vertex="1" parent="1">
          <mxGeometry x="610" y="810" width="120" height="60" as="geometry" />
        </mxCell>
        <mxCell id="3eQhAiiFZOsY3aDj4Qa5-26" value="" style="edgeStyle=orthogonalEdgeStyle;rounded=0;orthogonalLoop=1;jettySize=auto;html=1;" edge="1" parent="1" source="3eQhAiiFZOsY3aDj4Qa5-22" target="3eQhAiiFZOsY3aDj4Qa5-25">
          <mxGeometry relative="1" as="geometry" />
        </mxCell>
        <mxCell id="3eQhAiiFZOsY3aDj4Qa5-22" value="加入到一级缓存" style="whiteSpace=wrap;html=1;rounded=1;fillColor=#ffe6cc;strokeColor=#d79b00;" vertex="1" parent="1">
          <mxGeometry x="610" y="910" width="120" height="60" as="geometry" />
        </mxCell>
        <mxCell id="3eQhAiiFZOsY3aDj4Qa5-25" value="" style="whiteSpace=wrap;html=1;rounded=1;fillColor=#f8cecc;strokeColor=#b85450;" vertex="1" parent="1">
          <mxGeometry x="104" y="850" width="340" height="180" as="geometry" />
        </mxCell>
        <mxCell id="3eQhAiiFZOsY3aDj4Qa5-28" value="初始化属性，populateBean" style="text;html=1;strokeColor=none;fillColor=none;align=center;verticalAlign=middle;whiteSpace=wrap;rounded=0;" vertex="1" parent="1">
          <mxGeometry x="169" y="860" width="210" height="30" as="geometry" />
        </mxCell>
        <mxCell id="3eQhAiiFZOsY3aDj4Qa5-29" value="循环调用InstantiationAwareBeanPostProcessor&lt;br&gt;对里面的属性进行赋值，例如autowire就会实现这样一个后置处理器，然后进行判断" style="rounded=1;whiteSpace=wrap;html=1;fillColor=#ffe6cc;strokeColor=#d79b00;" vertex="1" parent="1">
          <mxGeometry x="148" y="920" width="276" height="80" as="geometry" />
        </mxCell>
        <mxCell id="3eQhAiiFZOsY3aDj4Qa5-30" value="" style="rounded=1;whiteSpace=wrap;html=1;fillColor=#f5f5f5;fontColor=#333333;strokeColor=#666666;" vertex="1" parent="1">
          <mxGeometry x="60" y="1090" width="710" height="140" as="geometry" />
        </mxCell>
        <mxCell id="3eQhAiiFZOsY3aDj4Qa5-36" value="" style="edgeStyle=orthogonalEdgeStyle;rounded=0;orthogonalLoop=1;jettySize=auto;html=1;strokeWidth=1;" edge="1" parent="1" source="3eQhAiiFZOsY3aDj4Qa5-32" target="3eQhAiiFZOsY3aDj4Qa5-35">
          <mxGeometry relative="1" as="geometry" />
        </mxCell>
        <mxCell id="3eQhAiiFZOsY3aDj4Qa5-32" value="首先判断singletonObjects三级缓存里面有没有这个实例，如果有那么直接返回" style="rounded=1;whiteSpace=wrap;html=1;fillColor=#ffe6cc;strokeColor=#d79b00;" vertex="1" parent="1">
          <mxGeometry x="600" y="1120" width="150" height="71" as="geometry" />
        </mxCell>
        <mxCell id="3eQhAiiFZOsY3aDj4Qa5-38" value="" style="edgeStyle=orthogonalEdgeStyle;rounded=0;orthogonalLoop=1;jettySize=auto;html=1;strokeWidth=1;" edge="1" parent="1" source="3eQhAiiFZOsY3aDj4Qa5-35" target="3eQhAiiFZOsY3aDj4Qa5-37">
          <mxGeometry relative="1" as="geometry" />
        </mxCell>
        <mxCell id="3eQhAiiFZOsY3aDj4Qa5-35" value="然后判断是否允许循环引用，并且二级缓存里面是否存在" style="whiteSpace=wrap;html=1;rounded=1;fillColor=#ffe6cc;strokeColor=#d79b00;" vertex="1" parent="1">
          <mxGeometry x="380" y="1125.5" width="120" height="60" as="geometry" />
        </mxCell>
        <mxCell id="3eQhAiiFZOsY3aDj4Qa5-37" value="如果没有则从三级缓存获取，然后把三级缓存的删除，放到二级缓存" style="whiteSpace=wrap;html=1;rounded=1;fillColor=#ffe6cc;strokeColor=#d79b00;" vertex="1" parent="1">
          <mxGeometry x="130" y="1125.5" width="120" height="60" as="geometry" />
        </mxCell>
        <mxCell id="3eQhAiiFZOsY3aDj4Qa5-40" value="Spring的bean加载流程" style="text;strokeColor=none;fillColor=none;html=1;fontSize=24;fontStyle=1;verticalAlign=middle;align=center;" vertex="1" parent="1">
          <mxGeometry x="240" y="240" width="270" height="40" as="geometry" />
        </mxCell>
        <mxCell id="3eQhAiiFZOsY3aDj4Qa5-41" value="" style="rounded=0;whiteSpace=wrap;html=1;" vertex="1" parent="1">
          <mxGeometry x="20" y="1290" width="820" height="350" as="geometry" />
        </mxCell>
        <mxCell id="3eQhAiiFZOsY3aDj4Qa5-77" value="SpringBoot的启动流程" style="text;strokeColor=none;fillColor=none;html=1;fontSize=24;fontStyle=1;verticalAlign=middle;align=center;" vertex="1" parent="1">
          <mxGeometry x="282.5" y="1290" width="270" height="40" as="geometry" />
        </mxCell>
        <mxCell id="3eQhAiiFZOsY3aDj4Qa5-80" value="" style="edgeStyle=orthogonalEdgeStyle;rounded=0;orthogonalLoop=1;jettySize=auto;html=1;strokeWidth=1;" edge="1" parent="1" source="3eQhAiiFZOsY3aDj4Qa5-78" target="3eQhAiiFZOsY3aDj4Qa5-79">
          <mxGeometry relative="1" as="geometry" />
        </mxCell>
        <mxCell id="3eQhAiiFZOsY3aDj4Qa5-78" value="准备环境信息，发布开始启动事件" style="rounded=1;whiteSpace=wrap;html=1;" vertex="1" parent="1">
          <mxGeometry x="60" y="1370" width="120" height="60" as="geometry" />
        </mxCell>
        <mxCell id="3eQhAiiFZOsY3aDj4Qa5-82" value="" style="edgeStyle=orthogonalEdgeStyle;rounded=0;orthogonalLoop=1;jettySize=auto;html=1;strokeWidth=1;" edge="1" parent="1" source="3eQhAiiFZOsY3aDj4Qa5-79" target="3eQhAiiFZOsY3aDj4Qa5-81">
          <mxGeometry relative="1" as="geometry" />
        </mxCell>
        <mxCell id="3eQhAiiFZOsY3aDj4Qa5-79" value="打印banner" style="whiteSpace=wrap;html=1;rounded=1;" vertex="1" parent="1">
          <mxGeometry x="260" y="1370" width="120" height="60" as="geometry" />
        </mxCell>
        <mxCell id="3eQhAiiFZOsY3aDj4Qa5-84" value="" style="edgeStyle=orthogonalEdgeStyle;rounded=0;orthogonalLoop=1;jettySize=auto;html=1;strokeWidth=1;" edge="1" parent="1" source="3eQhAiiFZOsY3aDj4Qa5-81" target="3eQhAiiFZOsY3aDj4Qa5-83">
          <mxGeometry relative="1" as="geometry" />
        </mxCell>
        <mxCell id="3eQhAiiFZOsY3aDj4Qa5-81" value="创建一个Spring容器" style="whiteSpace=wrap;html=1;rounded=1;" vertex="1" parent="1">
          <mxGeometry x="460" y="1370" width="120" height="60" as="geometry" />
        </mxCell>
        <mxCell id="3eQhAiiFZOsY3aDj4Qa5-86" value="" style="edgeStyle=orthogonalEdgeStyle;rounded=0;orthogonalLoop=1;jettySize=auto;html=1;strokeWidth=1;" edge="1" parent="1" source="3eQhAiiFZOsY3aDj4Qa5-83" target="3eQhAiiFZOsY3aDj4Qa5-85">
          <mxGeometry relative="1" as="geometry" />
        </mxCell>
        <mxCell id="3eQhAiiFZOsY3aDj4Qa5-83" value="准备同期上下文，例如参数，环境等等" style="whiteSpace=wrap;html=1;rounded=1;" vertex="1" parent="1">
          <mxGeometry x="660" y="1370" width="120" height="60" as="geometry" />
        </mxCell>
        <mxCell id="3eQhAiiFZOsY3aDj4Qa5-88" value="" style="edgeStyle=orthogonalEdgeStyle;rounded=0;orthogonalLoop=1;jettySize=auto;html=1;strokeWidth=1;" edge="1" parent="1" source="3eQhAiiFZOsY3aDj4Qa5-85" target="3eQhAiiFZOsY3aDj4Qa5-87">
          <mxGeometry relative="1" as="geometry" />
        </mxCell>
        <mxCell id="3eQhAiiFZOsY3aDj4Qa5-85" value="刷新spring容器并启动web容器" style="whiteSpace=wrap;html=1;rounded=1;" vertex="1" parent="1">
          <mxGeometry x="660" y="1510" width="120" height="60" as="geometry" />
        </mxCell>
        <mxCell id="3eQhAiiFZOsY3aDj4Qa5-87" value="发布启动完成事件并调用runner" style="whiteSpace=wrap;html=1;rounded=1;" vertex="1" parent="1">
          <mxGeometry x="460" y="1510" width="120" height="60" as="geometry" />
        </mxCell>
        <mxCell id="3eQhAiiFZOsY3aDj4Qa5-89" value="&lt;font style=&quot;font-size: 24px;&quot;&gt;自动装配&lt;/font&gt;" style="text;strokeColor=none;fillColor=none;html=1;fontSize=24;fontStyle=1;verticalAlign=middle;align=center;" vertex="1" parent="1">
          <mxGeometry x="240" y="900" width="100" height="40" as="geometry" />
        </mxCell>
      </root>
    </mxGraphModel>
  </diagram>
</mxfile>
